<mxfile host="app.diagrams.net" modified="2023-03-31T08:19:46.634Z" agent="Mozilla/5.0 (X11; Linux x86_64) AppleWebKit/537.36 (KHTML, like Gecko) Chrome/110.0.0.0 Safari/537.36" etag="_VrRrY7S-t0v7sSRCznC" version="21.1.1" type="github">
  <diagram name="Page-1" id="tpfmhDWZOnEipKTeY5yB">
    <mxGraphModel dx="3865" dy="2745" grid="1" gridSize="10" guides="1" tooltips="1" connect="1" arrows="1" fold="1" page="1" pageScale="1" pageWidth="827" pageHeight="1169" math="0" shadow="0">
      <root>
        <mxCell id="0" />
        <mxCell id="1" parent="0" />
        <mxCell id="CDFzMtoowuqR80sz95AC-110" value="&lt;div style=&quot;&quot;&gt;&lt;b style=&quot;font-size: 20px; background-color: initial;&quot;&gt;WP2&lt;/b&gt;&lt;/div&gt;" style="rounded=0;whiteSpace=wrap;html=1;fillColor=#d5e8d4;strokeColor=#82b366;align=center;verticalAlign=top;" vertex="1" parent="1">
          <mxGeometry x="1150.5" y="280" width="239.5" height="140" as="geometry" />
        </mxCell>
        <mxCell id="CDFzMtoowuqR80sz95AC-109" value="" style="rounded=0;whiteSpace=wrap;html=1;fillColor=#d5e8d4;strokeColor=#82b366;" vertex="1" parent="1">
          <mxGeometry x="201" y="90" width="279" height="90" as="geometry" />
        </mxCell>
        <mxCell id="CDFzMtoowuqR80sz95AC-85" value="&lt;b&gt;&lt;font style=&quot;font-size: 20px;&quot;&gt;&amp;nbsp; &amp;nbsp; &amp;nbsp; WP4&lt;/font&gt;&lt;/b&gt;" style="rounded=0;whiteSpace=wrap;html=1;fillColor=#d5e8d4;verticalAlign=top;align=left;strokeColor=#82b366;" vertex="1" parent="1">
          <mxGeometry x="260" y="220" width="520" height="280" as="geometry" />
        </mxCell>
        <mxCell id="CDFzMtoowuqR80sz95AC-11" style="edgeStyle=none;rounded=0;orthogonalLoop=1;jettySize=auto;html=1;exitX=0.75;exitY=1;exitDx=0;exitDy=0;entryX=0.5;entryY=1;entryDx=0;entryDy=0;" edge="1" parent="1" source="CDFzMtoowuqR80sz95AC-1" target="CDFzMtoowuqR80sz95AC-10">
          <mxGeometry relative="1" as="geometry" />
        </mxCell>
        <mxCell id="CDFzMtoowuqR80sz95AC-16" value="Query via url, R, Python, ..." style="edgeLabel;html=1;align=center;verticalAlign=middle;resizable=0;points=[];" vertex="1" connectable="0" parent="CDFzMtoowuqR80sz95AC-11">
          <mxGeometry x="-0.1876" y="1" relative="1" as="geometry">
            <mxPoint x="61" y="-3" as="offset" />
          </mxGeometry>
        </mxCell>
        <mxCell id="CDFzMtoowuqR80sz95AC-1" value="" style="image;aspect=fixed;perimeter=ellipsePerimeter;html=1;align=center;shadow=0;dashed=0;spacingTop=3;image=img/lib/active_directory/laptop_client.svg;" vertex="1" parent="1">
          <mxGeometry x="706" y="-70" width="45" height="50" as="geometry" />
        </mxCell>
        <mxCell id="CDFzMtoowuqR80sz95AC-9" style="edgeStyle=none;rounded=0;orthogonalLoop=1;jettySize=auto;html=1;exitX=0.5;exitY=0;exitDx=0;exitDy=0;entryX=0.5;entryY=1;entryDx=0;entryDy=0;startArrow=classic;startFill=1;" edge="1" parent="1" source="CDFzMtoowuqR80sz95AC-49" target="CDFzMtoowuqR80sz95AC-3">
          <mxGeometry relative="1" as="geometry">
            <mxPoint x="461" y="365" as="sourcePoint" />
          </mxGeometry>
        </mxCell>
        <mxCell id="CDFzMtoowuqR80sz95AC-13" value="CWS" style="edgeLabel;html=1;align=center;verticalAlign=middle;resizable=0;points=[];" vertex="1" connectable="0" parent="CDFzMtoowuqR80sz95AC-9">
          <mxGeometry x="-0.5091" relative="1" as="geometry">
            <mxPoint x="-25" y="-59" as="offset" />
          </mxGeometry>
        </mxCell>
        <mxCell id="CDFzMtoowuqR80sz95AC-5" style="edgeStyle=none;rounded=0;orthogonalLoop=1;jettySize=auto;html=1;exitX=1;exitY=0.25;exitDx=0;exitDy=0;entryX=0;entryY=1;entryDx=0;entryDy=0;endArrow=none;endFill=0;startArrow=classic;startFill=1;" edge="1" parent="1" source="CDFzMtoowuqR80sz95AC-3" target="CDFzMtoowuqR80sz95AC-1">
          <mxGeometry relative="1" as="geometry" />
        </mxCell>
        <mxCell id="CDFzMtoowuqR80sz95AC-22" value="Consult, build query" style="edgeLabel;html=1;align=center;verticalAlign=middle;resizable=0;points=[];" vertex="1" connectable="0" parent="CDFzMtoowuqR80sz95AC-5">
          <mxGeometry x="0.2491" y="-1" relative="1" as="geometry">
            <mxPoint x="-42" as="offset" />
          </mxGeometry>
        </mxCell>
        <mxCell id="CDFzMtoowuqR80sz95AC-7" style="edgeStyle=none;rounded=0;orthogonalLoop=1;jettySize=auto;html=1;exitX=0;exitY=0;exitDx=0;exitDy=0;entryX=1;entryY=0.75;entryDx=0;entryDy=0;endArrow=none;endFill=0;startArrow=classic;startFill=1;" edge="1" parent="1" source="CDFzMtoowuqR80sz95AC-3" target="CDFzMtoowuqR80sz95AC-6">
          <mxGeometry relative="1" as="geometry" />
        </mxCell>
        <mxCell id="CDFzMtoowuqR80sz95AC-15" style="edgeStyle=none;rounded=0;orthogonalLoop=1;jettySize=auto;html=1;exitX=1;exitY=0.75;exitDx=0;exitDy=0;" edge="1" parent="1" source="CDFzMtoowuqR80sz95AC-3" target="CDFzMtoowuqR80sz95AC-10">
          <mxGeometry relative="1" as="geometry" />
        </mxCell>
        <mxCell id="CDFzMtoowuqR80sz95AC-17" value="Query via catalogue" style="edgeLabel;html=1;align=center;verticalAlign=middle;resizable=0;points=[];" vertex="1" connectable="0" parent="CDFzMtoowuqR80sz95AC-15">
          <mxGeometry x="-0.5492" y="2" relative="1" as="geometry">
            <mxPoint x="25" y="11" as="offset" />
          </mxGeometry>
        </mxCell>
        <mxCell id="CDFzMtoowuqR80sz95AC-3" value="" style="image;aspect=fixed;perimeter=ellipsePerimeter;html=1;align=center;shadow=0;dashed=0;spacingTop=3;image=img/lib/active_directory/web_server.svg;" vertex="1" parent="1">
          <mxGeometry x="430" y="100" width="40" height="50" as="geometry" />
        </mxCell>
        <mxCell id="CDFzMtoowuqR80sz95AC-68" style="edgeStyle=none;rounded=0;orthogonalLoop=1;jettySize=auto;html=1;exitX=0.75;exitY=1;exitDx=0;exitDy=0;" edge="1" parent="1" source="CDFzMtoowuqR80sz95AC-6" target="CDFzMtoowuqR80sz95AC-61">
          <mxGeometry relative="1" as="geometry" />
        </mxCell>
        <mxCell id="CDFzMtoowuqR80sz95AC-112" style="edgeStyle=none;rounded=0;orthogonalLoop=1;jettySize=auto;html=1;exitX=1;exitY=1;exitDx=0;exitDy=0;" edge="1" parent="1" source="CDFzMtoowuqR80sz95AC-6" target="CDFzMtoowuqR80sz95AC-90">
          <mxGeometry relative="1" as="geometry" />
        </mxCell>
        <mxCell id="CDFzMtoowuqR80sz95AC-6" value="" style="image;aspect=fixed;perimeter=ellipsePerimeter;html=1;align=center;shadow=0;dashed=0;spacingTop=3;image=img/lib/active_directory/laptop_client.svg;" vertex="1" parent="1">
          <mxGeometry x="-70" y="-40" width="45" height="50" as="geometry" />
        </mxCell>
        <mxCell id="CDFzMtoowuqR80sz95AC-12" style="edgeStyle=none;rounded=0;orthogonalLoop=1;jettySize=auto;html=1;exitX=0.5;exitY=0;exitDx=0;exitDy=0;entryX=0.75;entryY=0;entryDx=0;entryDy=0;" edge="1" parent="1" source="CDFzMtoowuqR80sz95AC-10" target="CDFzMtoowuqR80sz95AC-49">
          <mxGeometry relative="1" as="geometry">
            <mxPoint x="475" y="390" as="targetPoint" />
          </mxGeometry>
        </mxCell>
        <mxCell id="CDFzMtoowuqR80sz95AC-14" value="User query" style="edgeLabel;html=1;align=center;verticalAlign=middle;resizable=0;points=[];" vertex="1" connectable="0" parent="CDFzMtoowuqR80sz95AC-12">
          <mxGeometry x="-0.1873" y="1" relative="1" as="geometry">
            <mxPoint as="offset" />
          </mxGeometry>
        </mxCell>
        <mxCell id="CDFzMtoowuqR80sz95AC-10" value="API" style="rounded=0;whiteSpace=wrap;html=1;rotation=0;direction=west;" vertex="1" parent="1">
          <mxGeometry x="596" y="240" width="120" height="20" as="geometry" />
        </mxCell>
        <mxCell id="CDFzMtoowuqR80sz95AC-18" value="&lt;span style=&quot;color: rgb(0, 0, 0); font-family: Helvetica; font-style: normal; font-variant-ligatures: normal; font-variant-caps: normal; letter-spacing: normal; orphans: 2; text-indent: 0px; text-transform: none; widows: 2; word-spacing: 0px; -webkit-text-stroke-width: 0px; background-color: rgb(255, 255, 255); text-decoration-thickness: initial; text-decoration-style: initial; text-decoration-color: initial; float: none; display: inline !important;&quot;&gt;&lt;b style=&quot;font-size: 20px;&quot;&gt;Task 5.3&lt;br&gt;&lt;/b&gt;&lt;font style=&quot;font-size: 12px;&quot;&gt;Catalogue of ressources to address Planetary Health issues&lt;/font&gt;&lt;/span&gt;" style="text;whiteSpace=wrap;html=1;align=right;" vertex="1" parent="1">
          <mxGeometry x="190" y="100" width="221" height="40" as="geometry" />
        </mxCell>
        <mxCell id="CDFzMtoowuqR80sz95AC-100" style="edgeStyle=none;rounded=0;orthogonalLoop=1;jettySize=auto;html=1;exitX=1;exitY=1;exitDx=0;exitDy=0;entryX=0;entryY=0.25;entryDx=0;entryDy=0;" edge="1" parent="1" source="CDFzMtoowuqR80sz95AC-19" target="CDFzMtoowuqR80sz95AC-97">
          <mxGeometry relative="1" as="geometry">
            <mxPoint x="655.4615384615386" y="500" as="targetPoint" />
          </mxGeometry>
        </mxCell>
        <mxCell id="CDFzMtoowuqR80sz95AC-111" value="When consolidated" style="edgeLabel;html=1;align=center;verticalAlign=middle;resizable=0;points=[];" vertex="1" connectable="0" parent="CDFzMtoowuqR80sz95AC-100">
          <mxGeometry x="0.7273" y="1" relative="1" as="geometry">
            <mxPoint as="offset" />
          </mxGeometry>
        </mxCell>
        <mxCell id="CDFzMtoowuqR80sz95AC-19" value="&lt;span style=&quot;color: rgb(0, 0, 0); font-family: Helvetica; font-size: 12px; font-style: normal; font-variant-ligatures: normal; font-variant-caps: normal; font-weight: 400; letter-spacing: normal; orphans: 2; text-indent: 0px; text-transform: none; widows: 2; word-spacing: 0px; -webkit-text-stroke-width: 0px; background-color: rgb(255, 255, 255); text-decoration-thickness: initial; text-decoration-style: initial; text-decoration-color: initial; float: none; display: inline !important;&quot;&gt;Project repository (for data that can not be upload in existing one)&lt;br&gt;&lt;br&gt;Project metadata repository&lt;br&gt;&lt;br&gt;Project model repository (Ontologies, Ontoterminologies)&lt;br&gt;&lt;br&gt;Web services&lt;br&gt;(metadata, CWS, WMS, ...)&amp;nbsp;&lt;br&gt;&lt;/span&gt;" style="text;whiteSpace=wrap;html=1;align=left;" vertex="1" parent="1">
          <mxGeometry x="561" y="340" width="190" height="90" as="geometry" />
        </mxCell>
        <mxCell id="CDFzMtoowuqR80sz95AC-83" style="edgeStyle=none;rounded=0;orthogonalLoop=1;jettySize=auto;html=1;exitX=1;exitY=0.25;exitDx=0;exitDy=0;entryX=0;entryY=1;entryDx=0;entryDy=0;" edge="1" parent="1" source="CDFzMtoowuqR80sz95AC-25" target="CDFzMtoowuqR80sz95AC-74">
          <mxGeometry relative="1" as="geometry" />
        </mxCell>
        <mxCell id="CDFzMtoowuqR80sz95AC-25" value="Existing FIOCRUZ/ICICT infrastructure&lt;br&gt;(Climate and Health Observatory)" style="rounded=1;whiteSpace=wrap;html=1;fillColor=none;verticalAlign=top;align=center;" vertex="1" parent="1">
          <mxGeometry x="10" y="670" width="460" height="250" as="geometry" />
        </mxCell>
        <mxCell id="CDFzMtoowuqR80sz95AC-62" style="edgeStyle=none;rounded=0;orthogonalLoop=1;jettySize=auto;html=1;exitX=0;exitY=0.25;exitDx=0;exitDy=0;startArrow=none;startFill=0;endArrow=none;endFill=0;" edge="1" parent="1" source="CDFzMtoowuqR80sz95AC-26" target="CDFzMtoowuqR80sz95AC-61">
          <mxGeometry relative="1" as="geometry" />
        </mxCell>
        <mxCell id="CDFzMtoowuqR80sz95AC-26" value="https://climaesaude.icict.fiocruz.br/" style="image;aspect=fixed;perimeter=ellipsePerimeter;html=1;align=center;shadow=0;dashed=0;spacingTop=3;image=img/lib/active_directory/web_server.svg;" vertex="1" parent="1">
          <mxGeometry x="340" y="750" width="40" height="50" as="geometry" />
        </mxCell>
        <mxCell id="CDFzMtoowuqR80sz95AC-28" style="edgeStyle=none;rounded=0;orthogonalLoop=1;jettySize=auto;html=1;exitX=1;exitY=0;exitDx=0;exitDy=0;entryX=0.5;entryY=1;entryDx=0;entryDy=0;startArrow=classic;startFill=1;" edge="1" parent="1" source="CDFzMtoowuqR80sz95AC-52" target="CDFzMtoowuqR80sz95AC-26">
          <mxGeometry relative="1" as="geometry" />
        </mxCell>
        <mxCell id="CDFzMtoowuqR80sz95AC-29" value="Existing ACC/Amboseli Program infrastructure&lt;br&gt;(http://dx.doi.org/10.1016/j.ecoinf.2017.09.006)" style="rounded=1;whiteSpace=wrap;html=1;fillColor=none;verticalAlign=top;align=center;" vertex="1" parent="1">
          <mxGeometry x="10" y="935" width="460" height="260" as="geometry" />
        </mxCell>
        <mxCell id="CDFzMtoowuqR80sz95AC-31" value="" style="image;aspect=fixed;perimeter=ellipsePerimeter;html=1;align=center;shadow=0;dashed=0;spacingTop=3;image=img/lib/active_directory/web_server.svg;" vertex="1" parent="1">
          <mxGeometry x="210" y="1010" width="40" height="50" as="geometry" />
        </mxCell>
        <mxCell id="CDFzMtoowuqR80sz95AC-32" style="rounded=0;orthogonalLoop=1;jettySize=auto;html=1;exitX=0.25;exitY=0;exitDx=0;exitDy=0;startArrow=classic;startFill=1;" edge="1" parent="1" source="CDFzMtoowuqR80sz95AC-53">
          <mxGeometry relative="1" as="geometry">
            <mxPoint x="248.35896453437772" y="1017.8553940469974" as="sourcePoint" />
            <mxPoint x="250" y="1040" as="targetPoint" />
          </mxGeometry>
        </mxCell>
        <mxCell id="CDFzMtoowuqR80sz95AC-82" style="edgeStyle=none;rounded=0;orthogonalLoop=1;jettySize=auto;html=1;exitX=0.5;exitY=0;exitDx=0;exitDy=0;entryX=0.5;entryY=1;entryDx=0;entryDy=0;" edge="1" parent="1" source="CDFzMtoowuqR80sz95AC-38" target="CDFzMtoowuqR80sz95AC-74">
          <mxGeometry relative="1" as="geometry" />
        </mxCell>
        <mxCell id="CDFzMtoowuqR80sz95AC-38" value="Existing Open data repositories" style="rounded=1;whiteSpace=wrap;html=1;fillColor=none;verticalAlign=top;align=center;" vertex="1" parent="1">
          <mxGeometry x="650" y="1015" width="300" height="150" as="geometry" />
        </mxCell>
        <mxCell id="CDFzMtoowuqR80sz95AC-93" style="edgeStyle=none;rounded=0;orthogonalLoop=1;jettySize=auto;html=1;exitX=0;exitY=0.5;exitDx=0;exitDy=0;endArrow=none;endFill=0;" edge="1" parent="1" source="CDFzMtoowuqR80sz95AC-49" target="CDFzMtoowuqR80sz95AC-90">
          <mxGeometry relative="1" as="geometry" />
        </mxCell>
        <mxCell id="CDFzMtoowuqR80sz95AC-49" value="" style="image;aspect=fixed;perimeter=ellipsePerimeter;html=1;align=center;shadow=0;dashed=0;spacingTop=3;image=img/lib/active_directory/database_server.svg;" vertex="1" parent="1">
          <mxGeometry x="451" y="360" width="41" height="50" as="geometry" />
        </mxCell>
        <mxCell id="CDFzMtoowuqR80sz95AC-52" value="" style="image;aspect=fixed;perimeter=ellipsePerimeter;html=1;align=center;shadow=0;dashed=0;spacingTop=3;image=img/lib/active_directory/database_server.svg;" vertex="1" parent="1">
          <mxGeometry x="280" y="860" width="41" height="50" as="geometry" />
        </mxCell>
        <mxCell id="CDFzMtoowuqR80sz95AC-84" style="edgeStyle=none;rounded=0;orthogonalLoop=1;jettySize=auto;html=1;exitX=0;exitY=0.75;exitDx=0;exitDy=0;entryX=0.25;entryY=1;entryDx=0;entryDy=0;" edge="1" parent="1" source="CDFzMtoowuqR80sz95AC-53" target="CDFzMtoowuqR80sz95AC-74">
          <mxGeometry relative="1" as="geometry" />
        </mxCell>
        <mxCell id="CDFzMtoowuqR80sz95AC-53" value="" style="image;aspect=fixed;perimeter=ellipsePerimeter;html=1;align=center;shadow=0;dashed=0;spacingTop=3;image=img/lib/active_directory/database_server.svg;" vertex="1" parent="1">
          <mxGeometry x="380" y="1090" width="41" height="50" as="geometry" />
        </mxCell>
        <mxCell id="CDFzMtoowuqR80sz95AC-54" value="GBIF" style="image;aspect=fixed;perimeter=ellipsePerimeter;html=1;align=center;shadow=0;dashed=0;spacingTop=3;image=img/lib/active_directory/database_server.svg;" vertex="1" parent="1">
          <mxGeometry x="679" y="1075" width="41" height="50" as="geometry" />
        </mxCell>
        <mxCell id="CDFzMtoowuqR80sz95AC-55" value="VectorBase" style="image;aspect=fixed;perimeter=ellipsePerimeter;html=1;align=center;shadow=0;dashed=0;spacingTop=3;image=img/lib/active_directory/database_server.svg;" vertex="1" parent="1">
          <mxGeometry x="739" y="1075" width="41" height="50" as="geometry" />
        </mxCell>
        <mxCell id="CDFzMtoowuqR80sz95AC-60" value="DataSuds" style="image;aspect=fixed;perimeter=ellipsePerimeter;html=1;align=center;shadow=0;dashed=0;spacingTop=3;image=img/lib/active_directory/database_server.svg;" vertex="1" parent="1">
          <mxGeometry x="802" y="1075" width="41" height="50" as="geometry" />
        </mxCell>
        <mxCell id="CDFzMtoowuqR80sz95AC-61" value="Dashboards&lt;br&gt;(e.g.&amp;nbsp;https://shiny.icict.fiocruz.br/publicirdmalaria/)" style="sketch=0;pointerEvents=1;shadow=0;dashed=0;html=1;strokeColor=none;fillColor=#434445;aspect=fixed;labelPosition=center;verticalLabelPosition=bottom;verticalAlign=top;align=center;outlineConnect=0;shape=mxgraph.vvd.nsx_dashboard;" vertex="1" parent="1">
          <mxGeometry x="135" y="721" width="50" height="46.5" as="geometry" />
        </mxCell>
        <mxCell id="CDFzMtoowuqR80sz95AC-63" style="edgeStyle=none;rounded=0;orthogonalLoop=1;jettySize=auto;html=1;exitX=0;exitY=0.25;exitDx=0;exitDy=0;startArrow=classic;startFill=1;" edge="1" parent="1" source="CDFzMtoowuqR80sz95AC-52" target="CDFzMtoowuqR80sz95AC-61">
          <mxGeometry relative="1" as="geometry">
            <mxPoint x="128" y="734" as="sourcePoint" />
            <mxPoint x="291" y="745" as="targetPoint" />
          </mxGeometry>
        </mxCell>
        <mxCell id="CDFzMtoowuqR80sz95AC-64" value="Dashboards&lt;br&gt;(e.g. https://jrstimeseriesforecast.shinyapps.io/&lt;br&gt;Spatial_time_series_jrs2017/)" style="sketch=0;pointerEvents=1;shadow=0;dashed=0;html=1;strokeColor=none;fillColor=#434445;aspect=fixed;labelPosition=center;verticalLabelPosition=bottom;verticalAlign=top;align=center;outlineConnect=0;shape=mxgraph.vvd.nsx_dashboard;" vertex="1" parent="1">
          <mxGeometry x="80" y="1010" width="50" height="46.5" as="geometry" />
        </mxCell>
        <mxCell id="CDFzMtoowuqR80sz95AC-65" style="rounded=0;orthogonalLoop=1;jettySize=auto;html=1;exitX=0;exitY=0;exitDx=0;exitDy=0;startArrow=classic;startFill=1;" edge="1" parent="1" source="CDFzMtoowuqR80sz95AC-53" target="CDFzMtoowuqR80sz95AC-64">
          <mxGeometry relative="1" as="geometry">
            <mxPoint x="384.5" y="999" as="sourcePoint" />
            <mxPoint x="495.5" y="1060" as="targetPoint" />
          </mxGeometry>
        </mxCell>
        <mxCell id="CDFzMtoowuqR80sz95AC-66" style="rounded=0;orthogonalLoop=1;jettySize=auto;html=1;exitX=0;exitY=0.5;exitDx=0;exitDy=0;startArrow=none;startFill=0;endArrow=none;endFill=0;" edge="1" parent="1" source="CDFzMtoowuqR80sz95AC-31" target="CDFzMtoowuqR80sz95AC-64">
          <mxGeometry relative="1" as="geometry">
            <mxPoint x="417.5" y="1015" as="sourcePoint" />
            <mxPoint x="325.5" y="1045" as="targetPoint" />
          </mxGeometry>
        </mxCell>
        <mxCell id="CDFzMtoowuqR80sz95AC-71" value="" style="image;aspect=fixed;perimeter=ellipsePerimeter;html=1;align=center;shadow=0;dashed=0;spacingTop=3;image=img/lib/active_directory/database_server.svg;" vertex="1" parent="1">
          <mxGeometry x="461" y="370" width="41" height="50" as="geometry" />
        </mxCell>
        <mxCell id="CDFzMtoowuqR80sz95AC-72" value="" style="image;aspect=fixed;perimeter=ellipsePerimeter;html=1;align=center;shadow=0;dashed=0;spacingTop=3;image=img/lib/active_directory/database_server.svg;" vertex="1" parent="1">
          <mxGeometry x="470" y="380" width="41" height="50" as="geometry" />
        </mxCell>
        <mxCell id="CDFzMtoowuqR80sz95AC-86" style="edgeStyle=none;rounded=0;orthogonalLoop=1;jettySize=auto;html=1;exitX=0.25;exitY=0;exitDx=0;exitDy=0;entryX=0.5;entryY=1;entryDx=0;entryDy=0;" edge="1" parent="1" source="CDFzMtoowuqR80sz95AC-74" target="CDFzMtoowuqR80sz95AC-72">
          <mxGeometry relative="1" as="geometry" />
        </mxCell>
        <mxCell id="CDFzMtoowuqR80sz95AC-74" value="&lt;font style=&quot;font-size: 20px;&quot;&gt;&lt;b&gt;Task 3.1&lt;br&gt;&lt;/b&gt;&lt;/font&gt;Metadata standards&lt;br&gt;Knowledge graphs ...&lt;br&gt;linked with ontoterminologies and ontologies&lt;br&gt;for interdisciplinary studies" style="rounded=0;whiteSpace=wrap;html=1;fillColor=#d5e8d4;strokeColor=#82b366;" vertex="1" parent="1">
          <mxGeometry x="550.5" y="530" width="160" height="120" as="geometry" />
        </mxCell>
        <mxCell id="CDFzMtoowuqR80sz95AC-81" style="edgeStyle=none;rounded=0;orthogonalLoop=1;jettySize=auto;html=1;exitX=0.25;exitY=0;exitDx=0;exitDy=0;entryX=0.75;entryY=1;entryDx=0;entryDy=0;" edge="1" parent="1" source="CDFzMtoowuqR80sz95AC-75" target="CDFzMtoowuqR80sz95AC-74">
          <mxGeometry relative="1" as="geometry" />
        </mxCell>
        <mxCell id="CDFzMtoowuqR80sz95AC-75" value="Existing data services and surveillance information systems" style="rounded=1;whiteSpace=wrap;html=1;fillColor=none;verticalAlign=top;align=center;" vertex="1" parent="1">
          <mxGeometry x="1030.5" y="900" width="539.5" height="150" as="geometry" />
        </mxCell>
        <mxCell id="CDFzMtoowuqR80sz95AC-76" value="..." style="image;aspect=fixed;perimeter=ellipsePerimeter;html=1;align=center;shadow=0;dashed=0;spacingTop=3;image=img/lib/active_directory/database_server.svg;" vertex="1" parent="1">
          <mxGeometry x="870" y="1075" width="41" height="50" as="geometry" />
        </mxCell>
        <mxCell id="CDFzMtoowuqR80sz95AC-77" value="Copernicus" style="image;aspect=fixed;perimeter=ellipsePerimeter;html=1;align=center;shadow=0;dashed=0;spacingTop=3;image=img/lib/active_directory/database_server.svg;" vertex="1" parent="1">
          <mxGeometry x="1055" y="950" width="41" height="50" as="geometry" />
        </mxCell>
        <mxCell id="CDFzMtoowuqR80sz95AC-78" value="INPE" style="image;aspect=fixed;perimeter=ellipsePerimeter;html=1;align=center;shadow=0;dashed=0;spacingTop=3;image=img/lib/active_directory/database_server.svg;" vertex="1" parent="1">
          <mxGeometry x="1120.5" y="950" width="41" height="50" as="geometry" />
        </mxCell>
        <mxCell id="CDFzMtoowuqR80sz95AC-79" value="Dataterra" style="image;aspect=fixed;perimeter=ellipsePerimeter;html=1;align=center;shadow=0;dashed=0;spacingTop=3;image=img/lib/active_directory/database_server.svg;" vertex="1" parent="1">
          <mxGeometry x="1181.5" y="950" width="41" height="50" as="geometry" />
        </mxCell>
        <mxCell id="CDFzMtoowuqR80sz95AC-89" style="edgeStyle=none;rounded=0;orthogonalLoop=1;jettySize=auto;html=1;exitX=1;exitY=0.5;exitDx=0;exitDy=0;strokeColor=#2D7600;fillColor=#60a917;endArrow=open;endFill=0;" edge="1" parent="1" source="CDFzMtoowuqR80sz95AC-88" target="CDFzMtoowuqR80sz95AC-90">
          <mxGeometry relative="1" as="geometry" />
        </mxCell>
        <mxCell id="CDFzMtoowuqR80sz95AC-91" style="edgeStyle=none;rounded=0;orthogonalLoop=1;jettySize=auto;html=1;exitX=1;exitY=0.75;exitDx=0;exitDy=0;fillColor=#60a917;strokeColor=#2D7600;endArrow=open;endFill=0;" edge="1" parent="1" source="CDFzMtoowuqR80sz95AC-88" target="CDFzMtoowuqR80sz95AC-61">
          <mxGeometry relative="1" as="geometry" />
        </mxCell>
        <mxCell id="CDFzMtoowuqR80sz95AC-92" style="edgeStyle=none;rounded=0;orthogonalLoop=1;jettySize=auto;html=1;exitX=0.75;exitY=1;exitDx=0;exitDy=0;fillColor=#60a917;strokeColor=#2D7600;endArrow=open;endFill=0;" edge="1" parent="1" source="CDFzMtoowuqR80sz95AC-88" target="CDFzMtoowuqR80sz95AC-64">
          <mxGeometry relative="1" as="geometry" />
        </mxCell>
        <mxCell id="CDFzMtoowuqR80sz95AC-88" value="&lt;b style=&quot;border-color: var(--border-color); font-size: 20px;&quot;&gt;Task 5.2&lt;br style=&quot;border-color: var(--border-color);&quot;&gt;&lt;/b&gt;" style="rounded=0;whiteSpace=wrap;html=1;fillColor=#d5e8d4;strokeColor=#82b366;" vertex="1" parent="1">
          <mxGeometry x="-170" y="450" width="120" height="60" as="geometry" />
        </mxCell>
        <mxCell id="CDFzMtoowuqR80sz95AC-90" value="Dashboards&lt;br&gt;(not shure of the necessity)" style="sketch=0;pointerEvents=1;shadow=0;dashed=0;html=1;strokeColor=none;fillColor=#434445;aspect=fixed;labelPosition=center;verticalLabelPosition=bottom;verticalAlign=top;align=center;outlineConnect=0;shape=mxgraph.vvd.nsx_dashboard;" vertex="1" parent="1">
          <mxGeometry x="360" y="350" width="50" height="46.5" as="geometry" />
        </mxCell>
        <mxCell id="CDFzMtoowuqR80sz95AC-95" style="edgeStyle=none;rounded=0;orthogonalLoop=1;jettySize=auto;html=1;exitX=0;exitY=0.75;exitDx=0;exitDy=0;entryX=1;entryY=0.25;entryDx=0;entryDy=0;" edge="1" parent="1" source="CDFzMtoowuqR80sz95AC-94" target="CDFzMtoowuqR80sz95AC-74">
          <mxGeometry relative="1" as="geometry" />
        </mxCell>
        <mxCell id="CDFzMtoowuqR80sz95AC-96" style="edgeStyle=none;rounded=0;orthogonalLoop=1;jettySize=auto;html=1;exitX=0;exitY=0.5;exitDx=0;exitDy=0;entryX=1;entryY=0;entryDx=0;entryDy=0;" edge="1" parent="1" source="CDFzMtoowuqR80sz95AC-94" target="CDFzMtoowuqR80sz95AC-72">
          <mxGeometry relative="1" as="geometry">
            <mxPoint x="1130.0000000000005" y="340" as="targetPoint" />
          </mxGeometry>
        </mxCell>
        <mxCell id="CDFzMtoowuqR80sz95AC-104" style="edgeStyle=none;rounded=0;orthogonalLoop=1;jettySize=auto;html=1;exitX=0;exitY=1;exitDx=0;exitDy=0;entryX=1;entryY=0;entryDx=0;entryDy=0;" edge="1" parent="1" source="CDFzMtoowuqR80sz95AC-94" target="CDFzMtoowuqR80sz95AC-38">
          <mxGeometry relative="1" as="geometry" />
        </mxCell>
        <mxCell id="CDFzMtoowuqR80sz95AC-94" value="New data produced by project&lt;br&gt;(e.g. Community-based monitoring)" style="image;aspect=fixed;perimeter=ellipsePerimeter;html=1;align=center;shadow=0;dashed=0;spacingTop=3;image=img/lib/active_directory/cell_phone.svg;" vertex="1" parent="1">
          <mxGeometry x="1261" y="320" width="21" height="50" as="geometry" />
        </mxCell>
        <mxCell id="CDFzMtoowuqR80sz95AC-103" style="edgeStyle=none;rounded=0;orthogonalLoop=1;jettySize=auto;html=1;exitX=0;exitY=0.5;exitDx=0;exitDy=0;entryX=1;entryY=0.5;entryDx=0;entryDy=0;" edge="1" parent="1" source="CDFzMtoowuqR80sz95AC-97" target="CDFzMtoowuqR80sz95AC-74">
          <mxGeometry relative="1" as="geometry" />
        </mxCell>
        <mxCell id="CDFzMtoowuqR80sz95AC-97" value="Existing Ontology repositories" style="rounded=1;whiteSpace=wrap;html=1;fillColor=none;verticalAlign=top;align=center;" vertex="1" parent="1">
          <mxGeometry x="1250" y="660" width="300" height="150" as="geometry" />
        </mxCell>
        <mxCell id="CDFzMtoowuqR80sz95AC-98" value="BioPortal" style="image;aspect=fixed;perimeter=ellipsePerimeter;html=1;align=center;shadow=0;dashed=0;spacingTop=3;image=img/lib/active_directory/database_server.svg;" vertex="1" parent="1">
          <mxGeometry x="1325" y="710" width="41" height="50" as="geometry" />
        </mxCell>
        <mxCell id="CDFzMtoowuqR80sz95AC-99" value="..." style="image;aspect=fixed;perimeter=ellipsePerimeter;html=1;align=center;shadow=0;dashed=0;spacingTop=3;image=img/lib/active_directory/database_server.svg;" vertex="1" parent="1">
          <mxGeometry x="1428" y="710" width="41" height="50" as="geometry" />
        </mxCell>
        <mxCell id="CDFzMtoowuqR80sz95AC-107" value="&lt;span style=&quot;color: rgb(0, 0, 0); font-family: Helvetica; font-size: 12px; font-style: normal; font-variant-ligatures: normal; font-variant-caps: normal; font-weight: 400; letter-spacing: normal; orphans: 2; text-align: center; text-indent: 0px; text-transform: none; widows: 2; word-spacing: 0px; -webkit-text-stroke-width: 0px; background-color: rgb(255, 255, 255); text-decoration-thickness: initial; text-decoration-style: initial; text-decoration-color: initial; float: none; display: inline !important;&quot;&gt;User&lt;/span&gt;" style="text;whiteSpace=wrap;html=1;" vertex="1" parent="1">
          <mxGeometry x="751" y="-60" width="60" height="40" as="geometry" />
        </mxCell>
        <mxCell id="CDFzMtoowuqR80sz95AC-113" value="&lt;b style=&quot;font-size: 23px;&quot;&gt;&lt;font color=&quot;#0091ff&quot;&gt;NB : WP5 seems coherent as it considers what will be accessible by the users,&lt;br&gt;for who specific research works on scientific literacy, communication strategies, ...&lt;br&gt;are required(?)&lt;br&gt;&lt;br&gt;Question : Include Task3.1 in WP4 ??&lt;br&gt;&lt;br&gt;&lt;/font&gt;&lt;/b&gt;" style="text;html=1;align=left;verticalAlign=middle;resizable=0;points=[];autosize=1;strokeColor=none;fillColor=none;" vertex="1" parent="1">
          <mxGeometry x="870" y="20" width="930" height="180" as="geometry" />
        </mxCell>
        <mxCell id="CDFzMtoowuqR80sz95AC-118" value="SIVEP" style="image;aspect=fixed;perimeter=ellipsePerimeter;html=1;align=center;shadow=0;dashed=0;spacingTop=3;image=img/lib/active_directory/database_server.svg;" vertex="1" parent="1">
          <mxGeometry x="1251" y="950" width="41" height="50" as="geometry" />
        </mxCell>
        <mxCell id="CDFzMtoowuqR80sz95AC-119" value="SIVIGILA" style="image;aspect=fixed;perimeter=ellipsePerimeter;html=1;align=center;shadow=0;dashed=0;spacingTop=3;image=img/lib/active_directory/database_server.svg;" vertex="1" parent="1">
          <mxGeometry x="1325" y="950" width="41" height="50" as="geometry" />
        </mxCell>
        <mxCell id="CDFzMtoowuqR80sz95AC-120" value="..." style="image;aspect=fixed;perimeter=ellipsePerimeter;html=1;align=center;shadow=0;dashed=0;spacingTop=3;image=img/lib/active_directory/database_server.svg;" vertex="1" parent="1">
          <mxGeometry x="1400" y="950" width="41" height="50" as="geometry" />
        </mxCell>
      </root>
    </mxGraphModel>
  </diagram>
</mxfile>
